<svg width="19" height="20" viewBox="0 0 19 20" fill="none" xmlns="http://www.w3.org/2000/svg">
<path d="M16.8612 14.404C17.6072 14.8255 18 15.3038 18 15.7906C18 16.2774 17.6072 16.7556 16.8612 17.1772C16.1152 17.5988 15.0422 17.9489 13.75 18.1923C12.4578 18.4357 10.9921 18.5638 9.5 18.5638C8.00794 18.5638 6.54216 18.4357 5.25 18.1923C3.95784 17.9489 2.88482 17.5988 2.13878 17.1772C1.39275 16.7556 1 16.2774 1 15.7906C1 15.3038 1.39275 14.8255 2.13878 14.404" stroke="#737057" stroke-linecap="round"/>
<path d="M17 7.93311C17 12.5975 11.4507 15.7353 9.89887 16.5216C9.64467 16.6504 9.35533 16.6504 9.10113 16.5216C7.54931 15.7353 2 12.5975 2 7.93311C2 3.77324 5.63401 1 9.5 1C13.5 1 17 3.77324 17 7.93311Z" stroke="#737057"/>
<path d="M13 7.93313C13 9.66287 11.4707 11.1308 9.5 11.1308C7.52927 11.1308 6 9.66287 6 7.93313C6 6.20339 7.52927 4.73547 9.5 4.73547C11.4707 4.73547 13 6.20339 13 7.93313Z" stroke="#737057"/>
</svg>
